<svg id="Layer_1" data-name="Layer 1" xmlns="http://www.w3.org/2000/svg" viewBox="0 0 651.69 259.76"><defs><style>.cls-1{fill:#38b7cc;}.cls-2{fill:#318ab2;}</style></defs><path class="cls-1" d="M178.73,102.49a3,3,0,0,1,3.11-2.81H212a2.72,2.72,0,0,1,2.88,2.61A2.77,2.77,0,0,1,212,105H185v15.5h11.8a2.77,2.77,0,0,1,2.88,2.69,2.72,2.72,0,0,1-2.88,2.61H185v18.53a3.15,3.15,0,0,1-6.28,0Z"/><path class="cls-1" d="M215.4,124.32c0-9.46,6.62-15.84,16.63-15.84a2.85,2.85,0,0,1,3,2.71,2.9,2.9,0,0,1-3,2.71c-6,0-10.17,3.6-10.17,10.42v19.87a3.12,3.12,0,0,1-3.23,3,3.07,3.07,0,0,1-3.23-3Z"/><path class="cls-2" d="M503.45,108.48c-11.62,0-20.43,8.58-20.43,19.43,0,.23.06.45.07.68l-.07.22V168c0,2.34,0,5.2,3.25,5.2s3.32-2.86,3.32-5.2V143.14l-.08-.94a20.89,20.89,0,0,0,13.94,5.14c11.6,0,20.35-8.58,20.35-19.43S515.05,108.48,503.45,108.48Zm0,33.44a14,14,0,1,1,14.09-14A14,14,0,0,1,503.45,141.92Z"/><path class="cls-1" d="M286.25,125.42c0-10.64,7.83-16.94,17.68-16.94s17.77,6.3,17.77,16.94v18.77a3.12,3.12,0,0,1-3.24,3,3.07,3.07,0,0,1-3.22-3V125.27c0-7.48-5-11.37-11.31-11.37s-11.23,3.89-11.23,11.37v18.92a3.11,3.11,0,0,1-3.22,3,3.07,3.07,0,0,1-3.23-3Z"/><path class="cls-1" d="M327.34,111.93a2.86,2.86,0,0,1,3-2.72h4.28v-6.6a3,3,0,0,1,3.22-2.93,3,3,0,0,1,3.23,2.93v6.6h10.66a2.85,2.85,0,0,1,3,2.72,2.9,2.9,0,0,1-3,2.7H341.07v16.58c0,6.82,4.29,10.49,10.66,10.49a2.76,2.76,0,1,1,0,5.5c-10,0-17.11-6.16-17.11-16V114.63h-4.28A2.9,2.9,0,0,1,327.34,111.93Z"/><path class="cls-2" d="M364.27,136.51a3,3,0,0,1,5.82-.59c.57,2.61,3.67,6.2,9.42,6.2,5.53,0,9.27-3.79,9.27-7.77,0-5.35-4.89-7.24-8.7-8.23l-3.6-.91c-4.52-1.24-11.71-4-11.71-12.53,0-7.12,6.25-12.34,14.81-12.34,8.77,0,14.59,5.41,14.59,10.51a2.79,2.79,0,0,1-2.95,2.67,2.7,2.7,0,0,1-2.87-2.22c-.57-2.54-3.31-5.81-8.77-5.81s-8.7,3.59-8.7,7.51c0,5.22,5.46,6.92,8.56,7.71l3.23.85c4.68,1.24,12.22,3.78,12.22,13.12,0,6.92-6.61,12.66-15.38,12.66S364.27,141.53,364.27,136.51Z"/><path class="cls-2" d="M403.63,111.93a2.86,2.86,0,0,1,3-2.72h4.28v-6.6a3.05,3.05,0,0,1,3.23-2.93,3,3,0,0,1,3.23,2.93v6.6H428a2.86,2.86,0,0,1,3,2.72,2.9,2.9,0,0,1-3,2.7H417.36v16.58c0,6.82,4.28,10.49,10.66,10.49a2.76,2.76,0,1,1,0,5.5c-10,0-17.12-6.16-17.12-16V114.63h-4.28A2.9,2.9,0,0,1,403.63,111.93Z"/><path class="cls-2" d="M435.91,127.91c0-10.85,9.2-19.43,21.32-19.43a21.92,21.92,0,0,1,14,4.69,3,3,0,0,1,1.21,2.28,2.9,2.9,0,0,1-1.05,2.19L457,133.26a3,3,0,0,1-2.27,1,2.77,2.77,0,0,1-3.06-2.64,2.37,2.37,0,0,1,.72-1.84L465,116.25a13,13,0,0,0-7.74-2.35c-8.24,0-14.78,6.16-14.78,14s6.46,14,14.78,14a14.75,14.75,0,0,0,10.74-4.4,4.12,4.12,0,0,1,2.74-1.32,2.94,2.94,0,0,1,3.23,2.78,3.22,3.22,0,0,1-1,2,21.33,21.33,0,0,1-15.74,6.38C445.2,147.34,435.91,138.76,435.91,127.91Z"/><path class="cls-1" d="M244.85,127.91a13.82,13.82,0,0,1,10.21-13.56,2.72,2.72,0,0,0,2-2.63h0a2.75,2.75,0,0,0-3.43-2.65,19.37,19.37,0,0,0,0,37.69,2.76,2.76,0,0,0,3.43-2.66h0a2.73,2.73,0,0,0-2-2.64A13.86,13.86,0,0,1,244.85,127.91Z"/><path class="cls-1" d="M278.28,127.91a19.13,19.13,0,0,0-15-18.89A2.71,2.71,0,0,0,260,111.7h0a2.72,2.72,0,0,0,2,2.64,14.12,14.12,0,0,1,0,27.14,2.72,2.72,0,0,0-2,2.64h0a2.71,2.71,0,0,0,3.27,2.68A19.13,19.13,0,0,0,278.28,127.91Z"/><path class="cls-2" d="M162,115.34a8.76,8.76,0,0,0-2.6-4.63l-.84-.83L156,107.27l-3.73-3.86-1.6-1.66a5.68,5.68,0,0,0-3-2h-.06c-.18-.06-.41-.06-.59-.12H121.91a.7.7,0,0,0-.35.06,5.67,5.67,0,0,0-3.44,2l-8.66,9c-1.78,1.84-2.67,3.62-2.67,5.22v25.62a5.28,5.28,0,0,0,1.3,3.91,4.79,4.79,0,0,0,3.62,1.37h15.84a1.61,1.61,0,0,0,1.24-.54,1.79,1.79,0,0,0,0-2.55,1.63,1.63,0,0,0-1.24-.53H112.66a1.91,1.91,0,0,1-2.14-2.19v-24.5a4,4,0,0,1,1.19-2.85l8.54-8.83a3.7,3.7,0,0,1,.71-.6,2.13,2.13,0,0,1,.77-.41,1.32,1.32,0,0,1,.48-.06,1.6,1.6,0,0,1,.53.06,2.2,2.2,0,0,1,.89.59l.42.42,1.48,1.48,3.5,3.62,2.55,2.67,1,1.06a4.51,4.51,0,0,1,1.18,2.14v28.73a2.3,2.3,0,0,0,2.3,2.29h21.07a4.77,4.77,0,0,0,3.62-1.37,5.28,5.28,0,0,0,1.3-3.91L162,115.34Zm-3.67,25V141a1.9,1.9,0,0,1-2.14,2.19H137.51v-27.7h0a8.69,8.69,0,0,0-2.67-4.74l-.77-.89-2.55-2.61-3.74-3.86H146.7c.6,0,1.25.83,1.49,1.07l.41.42,1.42,1.48,3.5,3.62,2.55,2.67,1,1.06a5,5,0,0,1,1.13,2.14h.06V140.3Z"/></svg>